<svg xmlns="http://www.w3.org/2000/svg" viewBox="0 0 384.87 592.47"><defs><style>.cls-1{fill:#201600;}</style></defs><title>Poligonija-Logo-5</title><g id="Layer_2" data-name="Layer 2"><g id="Layer_1-2" data-name="Layer 1"><polygon class="cls-1" points="176.97 222.39 110.5 259.65 110.5 182.5 176.97 222.39"/><polygon class="cls-1" points="176.97 103.37 110.5 140.63 110.5 63.48 176.97 103.37"/><polygon class="cls-1" points="278.08 39.89 211.6 77.15 211.6 0 278.08 39.89"/><polygon class="cls-1" points="278.08 167 211.6 204.26 211.6 127.11 278.08 167"/><polygon class="cls-1" points="278.08 280.48 211.6 317.75 211.6 240.59 278.08 280.48"/><polygon class="cls-1" points="281.39 388.74 214.91 426 214.91 348.85 281.39 388.74"/><polygon class="cls-1" points="380.67 335.62 314.19 372.88 314.19 295.72 380.67 335.62"/><polygon class="cls-1" points="380.67 223.35 314.19 260.62 314.19 183.46 380.67 223.35"/><polygon class="cls-1" points="380.67 104.32 314.19 141.58 314.19 64.42 380.67 104.32"/><polygon class="cls-1" points="318.39 166.86 384.87 129.6 384.87 206.75 318.39 166.86"/><polygon class="cls-1" points="316.73 278.85 383.2 241.59 383.2 318.75 316.73 278.85"/><polygon class="cls-1" points="221.84 334.98 288.32 297.72 288.32 374.88 221.84 334.98"/><polygon class="cls-1" points="221.84 222.72 288.32 185.46 288.32 262.62 221.84 222.72"/><polygon class="cls-1" points="222.49 102.69 288.97 65.42 288.97 142.58 222.49 102.69"/><polygon class="cls-1" points="121.72 167.03 188.19 129.77 188.19 206.93 121.72 167.03"/><polygon class="cls-1" points="121.72 39.26 188.19 2 188.19 79.15 121.72 39.26"/><polygon class="cls-1" points="18.79 102.74 85.27 65.48 85.27 142.63 18.79 102.74"/><polygon class="cls-1" points="18.79 222.75 85.27 185.49 85.27 262.65 18.79 222.75"/><polygon class="cls-1" points="18.79 333.87 85.27 296.61 85.27 373.76 18.79 333.87"/><polygon class="cls-1" points="18.79 441.13 85.27 403.86 85.27 481.02 18.79 441.13"/><polygon class="cls-1" points="18.79 552.58 85.27 515.32 85.27 592.47 18.79 552.58"/><polygon class="cls-1" points="121.72 278.85 188.19 241.59 188.19 318.75 121.72 278.85"/><polygon class="cls-1" points="121.72 388.11 188.19 350.85 188.19 428 121.72 388.11"/><polygon class="cls-1" points="120.66 496.63 187.14 459.37 187.14 536.52 120.66 496.63"/><polygon class="cls-1" points="176.97 334.5 110.5 371.76 110.5 294.61 176.97 334.5"/><polygon class="cls-1" points="176.97 442.76 110.5 480.02 110.5 402.87 176.97 442.76"/><polygon class="cls-1" points="176.97 555.21 110.5 592.47 110.5 515.32 176.97 555.21"/><polygon class="cls-1" points="66.48 166.23 0 203.49 0 126.34 66.48 166.23"/><polygon class="cls-1" points="66.48 279.34 0 316.6 0 239.45 66.48 279.34"/><polygon class="cls-1" points="66.48 387.6 0 424.86 0 347.71 66.48 387.6"/><polygon class="cls-1" points="66.48 497.75 0 535.01 0 457.86 66.48 497.75"/></g></g></svg>