<svg xmlns="http://www.w3.org/2000/svg" viewBox="0 0 372.4 608.81"><defs><style>.cls-1{fill:#fff;}.cls-1,.cls-2{stroke:#fff;stroke-miterlimit:10;fill-rule:evenodd;}.cls-2{fill:none;}</style></defs><title>Logo-white</title><g id="Layer_2" data-name="Layer 2"><g id="Artboard_2" data-name="Artboard 2"><polygon class="cls-1" points="187.15 2.55 187.15 96.02 105.67 45.6 187.15 2.55"/><polygon class="cls-2" points="193.25 205.5 192.94 108.28 276.27 161.08 193.25 205.5"/><polygon class="cls-2" points="101.22 155.54 185.04 107.2 185.2 203.58 101.22 155.54"/><polygon class="cls-2" points="97.77 160.5 184.73 210.3 96.72 260.04 97.77 160.5"/><polygon class="cls-1" points="371.41 108.46 285.52 156.08 286.43 56.23 371.41 108.46"/><polygon class="cls-1" points="371.13 114.6 371.06 212.15 289.72 161.12 371.13 114.6"/><polygon class="cls-1" points="371.13 224.83 371.38 323.5 292.79 269.3 371.13 224.83"/><polygon class="cls-1" points="95.72 272.05 183.54 325.32 96.18 376.76 95.72 272.05"/><polygon class="cls-2" points="98.55 266.12 184.71 216.24 185.05 318.5 98.55 266.12"/><polygon class="cls-2" points="193.14 319.51 193.74 215.22 280.72 267 193.14 319.51"/><polygon class="cls-1" points="288.76 262.51 286.71 166.12 369.93 218.69 288.76 262.51"/><polygon class="cls-1" points="194.5 94.66 194.5 0.89 274.08 49.39 194.5 94.66"/><polygon class="cls-1" points="99.32 49.43 98.53 149.08 182.56 100.63 99.32 49.43"/><polygon class="cls-1" points="279.15 155.55 279.4 52.69 194.95 100.43 279.15 155.55"/><polygon class="cls-2" points="281.65 164.55 198.64 209.45 281.73 258.4 281.65 164.55"/><polygon class="cls-1" points="193 432.77 192.89 327.48 281.29 379.92 193 432.77"/><polygon class="cls-1" points="0.5 549.04 0.5 446.13 88.9 495.56 0.5 549.04"/><polygon class="cls-1" points="288.25 375.47 290.64 275.29 367.53 327.78 288.25 375.47"/><polygon class="cls-1" points="283.21 275.1 199.86 323.75 279.88 370.66 283.21 275.1"/><polygon class="cls-1" points="0.86 205.5 0.55 103.28 88.64 157.33 0.86 205.5"/><polygon class="cls-1" points="0.75 319.51 0.55 214.04 89.75 266.66 0.75 319.51"/><polygon class="cls-1" points="92.2 152.13 92.74 52.69 3.29 99.43 92.2 152.13"/><polygon class="cls-1" points="90.6 165.23 6.25 210.45 90.34 259.4 90.6 165.23"/><polygon class="cls-1" points="0.9 431.77 0.5 327.48 88.9 378.92 0.9 431.77"/><polygon class="cls-1" points="88.75 276.12 5.4 323.41 88.49 370.66 88.75 276.12"/><polygon class="cls-1" points="99.56 380.44 187.15 432.17 187.15 330.5 99.56 380.44"/><polygon class="cls-1" points="1.13 437.73 88.72 489.46 88.72 387.79 1.13 437.73"/><polygon class="cls-1" points="96.72 607.93 96.33 503.64 185.72 555.07 96.72 607.93"/><polygon class="cls-1" points="95.72 492.28 96.33 384.99 184.72 437.43 95.72 492.28"/><polygon class="cls-1" points="98.95 498.24 186.54 546.98 186.54 445.31 98.95 498.24"/><polygon class="cls-1" points="3.3 555.22 90.9 606.96 90.9 505.29 3.3 555.22"/></g></g></svg>