<svg xmlns="http://www.w3.org/2000/svg" viewBox="0 0 271.59 34.89"><defs><style>.cls-1{opacity:0.5;}.cls-2{fill:none;}.cls-2,.cls-3{stroke:#fff;stroke-miterlimit:10;stroke-width:0.25px;}.cls-3,.cls-4{fill:#fff;}</style></defs><title>Sponsor logos</title><g id="Layer_2" data-name="Layer 2"><g id="Logos"><g id="Sponsor_logos" data-name="Sponsor logos" class="cls-1"><path class="cls-2" d="M.16,33.1V31.83H15.81V33.1Z"/><path class="cls-3" d="M81.83,18.78a.84.84,0,0,0-.06.14l-.18.66,0,.09h-.46l.28-1.05c.15-.08.31,0,.46,0Z"/><path class="cls-2" d="M15,6.85l-.09.46a15.49,15.49,0,0,1-.46,1.78,5.65,5.65,0,0,1-.66,1.46,3.76,3.76,0,0,1-.25.31.63.63,0,0,1-.52.21h-.7c-.3,0-.59,0-.89,0l-.89,0c0-.12,0-.24,0-.37l0-.83,0-.95,0-.42a.64.64,0,0,1,.14-.35,1.67,1.67,0,0,1,.5-.41,4.51,4.51,0,0,1,1.16-.43c.38-.09.75-.17,1.13-.23.23,0,.47-.06.7-.08l.51-.06Z"/><path class="cls-2" d="M8.85,6.15h.58v5.55a3,3,0,0,0,.35-.37c.12-.12.22-.25.33-.38a2.21,2.21,0,0,1,.45.37c-.36.45-.76.86-1.13,1.31V28.39a1.31,1.31,0,0,1-.59,0Z"/><path class="cls-2" d="M4.75,28.4H4.2c0-.14,0-21.66,0-22.24h.54C4.77,6.28,4.78,27.88,4.75,28.4Z"/><path class="cls-2" d="M7.16,28.4H6.61V6.16h.54C7.18,6.29,7.19,28,7.16,28.4Z"/><path class="cls-2" d="M15.78,1.79v.55H.13V1.79Z"/><path class="cls-2" d="M11.16,13.36h.56V28.41h-.56Z"/><path class="cls-2" d="M14,3.84v.58H2a.7.7,0,0,1,0-.29,2.8,2.8,0,0,1,0-.29Z"/><path class="cls-2" d="M1.94,30.57V30H14v.58Z"/><path class="cls-3" d="M36.17,29l1,1.41a1.32,1.32,0,0,1-.56,0L35.5,28.86l.32-.12a1,1,0,0,0,.39-.27.67.67,0,0,0,.08-.73.54.54,0,0,0-.45-.31,4.34,4.34,0,0,0-.51,0v3a1.15,1.15,0,0,1-.49,0V27A3.66,3.66,0,0,1,36,27a1,1,0,0,1,.8.64,1,1,0,0,1-.36,1.16A2.2,2.2,0,0,1,36.17,29Z"/><path class="cls-3" d="M50.37,22.37a.61.61,0,0,1,.4,0l0,.27.09-.07a.92.92,0,0,1,1.48.23,1.42,1.42,0,0,1,.11.35,2,2,0,0,1,0,.84,1.13,1.13,0,0,1-1.09.85,3.59,3.59,0,0,1-.47,0h-.07v1.08a1.09,1.09,0,0,1-.48,0Zm.48,2a1.08,1.08,0,0,0,.59,0,.64.64,0,0,0,.48-.36,1.28,1.28,0,0,0,0-1,.43.43,0,0,0-.21-.23.62.62,0,0,0-.68.11.59.59,0,0,0-.19.43Z"/><path class="cls-3" d="M40.55,19.14v1.1a1,1,0,0,1-.48,0V16.72a.49.49,0,0,1,.41,0l0,.25,0,0a.33.33,0,0,1,.06-.1.92.92,0,0,1,1.48.28,1.74,1.74,0,0,1,0,1.29,1.09,1.09,0,0,1-1,.71A1.6,1.6,0,0,1,40.55,19.14Zm0-.39c.14,0,.28,0,.42,0a.7.7,0,0,0,.72-.57,1.42,1.42,0,0,0,0-.68.52.52,0,0,0-.35-.44.59.59,0,0,0-.78.52C40.54,18,40.56,18.35,40.56,18.75Z"/><path class="cls-3" d="M40.92,30.47a3.27,3.27,0,0,0,0,.54v.54a1.06,1.06,0,0,1-.47,0V28h.39l.06.31a.82.82,0,0,1,.44-.32.92.92,0,0,1,1.2.64,1.82,1.82,0,0,1,0,1.06,1.11,1.11,0,0,1-.9.78,1.56,1.56,0,0,1-.57,0Zm0-.44.17,0h.29a.66.66,0,0,0,.69-.51,1.3,1.3,0,0,0,0-.85.48.48,0,0,0-.33-.33.58.58,0,0,0-.76.49C40.89,29.27,40.9,29.65,40.89,30Z"/><path class="cls-3" d="M46.2,30.37V27h.47c0,.43,0,.85,0,1.29l.12-.1a1,1,0,0,1,1.43.28,1.69,1.69,0,0,1,0,1.41,1.09,1.09,0,0,1-.87.62A2.3,2.3,0,0,1,46.2,30.37Zm.46-.34a1.18,1.18,0,0,0,.67,0,.66.66,0,0,0,.44-.39,1.31,1.31,0,0,0,0-1,.44.44,0,0,0-.26-.26.59.59,0,0,0-.82.49C46.67,29.27,46.67,29.65,46.66,30Z"/><path class="cls-3" d="M50.64,19.08a4,4,0,0,1-.46.08,2.32,2.32,0,0,1-.83,0,1,1,0,0,1-.82-.8,1.59,1.59,0,0,1,0-.94,1.16,1.16,0,0,1,1.21-.76l.38.05v-1h.47Zm-.47-2a1.24,1.24,0,0,0-.16,0l-.2,0a.67.67,0,0,0-.74.45,1.34,1.34,0,0,0,0,.74.58.58,0,0,0,.3.44,1.22,1.22,0,0,0,.84,0Z"/><path class="cls-3" d="M36.26,24.73c-.18,0-.35.08-.53.1a2.1,2.1,0,0,1-.86,0,1,1,0,0,1-.72-.74,1.61,1.61,0,0,1,.05-1,1.12,1.12,0,0,1,1.09-.76l.48,0a2.77,2.77,0,0,0,0-.5c0-.17,0-.34,0-.51a1,1,0,0,1,.48,0Zm-.47-1.95a1.35,1.35,0,0,0-.43-.08.69.69,0,0,0-.68.48,1.33,1.33,0,0,0,0,.79.58.58,0,0,0,.4.43,1.14,1.14,0,0,0,.73,0Z"/><path class="cls-3" d="M32.18,28V27h.46v3.4a1.18,1.18,0,0,1-.37.09,2.64,2.64,0,0,1-.93,0,1,1,0,0,1-.83-.92,1.68,1.68,0,0,1,0-.74A1.13,1.13,0,0,1,31.68,28Zm0,2.06V28.44a1,1,0,0,0-.46-.08.68.68,0,0,0-.64.46,1.32,1.32,0,0,0,0,.81.59.59,0,0,0,.45.44A1.38,1.38,0,0,0,32.17,30.06Z"/><path class="cls-3" d="M60.51,27.13l-.1.38-.58-.11a1.09,1.09,0,0,0-.44.05.43.43,0,0,0-.15.72,1.22,1.22,0,0,0,.29.17c.21.1.43.18.64.29a.8.8,0,0,1,.45.53A1,1,0,0,1,60,30.42a2.19,2.19,0,0,1-1.34,0l-.1,0a.91.91,0,0,1,.11-.44l.13,0a1.76,1.76,0,0,0,.79.09.84.84,0,0,0,.27-.08.49.49,0,0,0,.31-.44.48.48,0,0,0-.25-.49c-.17-.09-.34-.16-.52-.24L59,28.63a.79.79,0,0,1-.39-.81.86.86,0,0,1,.82-.81A2.2,2.2,0,0,1,60.51,27.13Z"/><path class="cls-3" d="M68.59,29.36a2.09,2.09,0,0,0,0,.28.61.61,0,0,0,.53.44A1.65,1.65,0,0,0,70,30a.88.88,0,0,1,.09.37,1.22,1.22,0,0,1-.53.13,1.65,1.65,0,0,1-.79-.08,1,1,0,0,1-.62-.63,1.71,1.71,0,0,1,0-1.18,1,1,0,0,1,.87-.63,1,1,0,0,1,.43,0,.92.92,0,0,1,.72.8,3.4,3.4,0,0,1,0,.45.53.53,0,0,1,0,.12ZM69.77,29a.57.57,0,0,0-.59-.64.58.58,0,0,0-.55.64Z"/><path class="cls-3" d="M77.25,29.36a.63.63,0,0,0,.58.73,1.69,1.69,0,0,0,.8-.1.76.76,0,0,1,.11.37,1.49,1.49,0,0,1-.55.14,1.8,1.8,0,0,1-.61,0,1,1,0,0,1-.82-.82,1.71,1.71,0,0,1,.08-1.05,1,1,0,0,1,.85-.62,1.14,1.14,0,0,1,.45,0,.92.92,0,0,1,.7.72,1.65,1.65,0,0,1,0,.63l-.14,0H77.25ZM78.4,29a.56.56,0,0,0-.55-.64.59.59,0,0,0-.6.64Z"/><path class="cls-3" d="M38.05,29.36a.63.63,0,0,0,.58.73,1.85,1.85,0,0,0,.81-.1.69.69,0,0,1,.1.37,1.37,1.37,0,0,1-.49.13,1.91,1.91,0,0,1-.75,0,1,1,0,0,1-.73-.77,1.78,1.78,0,0,1,.07-1.07,1,1,0,0,1,.87-.63,1.08,1.08,0,0,1,.62.08,1,1,0,0,1,.55.86,3.08,3.08,0,0,1,0,.43,7.3,7.3,0,0,1-.81,0ZM39.21,29a.58.58,0,0,0-.57-.64.59.59,0,0,0-.59.64Z"/><path class="cls-3" d="M56.65,29.35H55a.61.61,0,0,0,.53.73A1.74,1.74,0,0,0,56.4,30a.67.67,0,0,1,.11.37s-.07,0-.12.05a2.07,2.07,0,0,1-1,.06,1,1,0,0,1-.85-.86,1.63,1.63,0,0,1,.09-1,1,1,0,0,1,.85-.64,1,1,0,0,1,.6.07.93.93,0,0,1,.58.83A3.76,3.76,0,0,1,56.65,29.35ZM56.17,29a.56.56,0,0,0-.57-.64A.59.59,0,0,0,55,29Z"/><path class="cls-3" d="M55.49,23.69a.67.67,0,0,0,.7.76,1.77,1.77,0,0,0,.56-.08l.13,0a.72.72,0,0,1,.11.37,1.14,1.14,0,0,1-.47.13,2.36,2.36,0,0,1-.65,0A1,1,0,0,1,55,24a1.63,1.63,0,0,1,.07-1,1,1,0,0,1,.91-.66,1.09,1.09,0,0,1,.64.11,1,1,0,0,1,.48.74,1.18,1.18,0,0,1,0,.53Zm0-.36h1.16a.56.56,0,0,0-.49-.64C55.79,22.66,55.53,22.86,55.49,23.33Z"/><path class="cls-3" d="M45,18H43.38a.63.63,0,0,0,.61.74,1.79,1.79,0,0,0,.4,0l.37-.08a.5.5,0,0,1,.09.37l-.21.07a2.13,2.13,0,0,1-.94,0,1,1,0,0,1-.82-.85,1.79,1.79,0,0,1,0-.86,1.05,1.05,0,0,1,1-.79,1.47,1.47,0,0,1,.36,0,.83.83,0,0,1,.59.5A1.36,1.36,0,0,1,45,18Zm-.45-.37a.58.58,0,0,0-.62-.64.6.6,0,0,0-.54.64Z"/><path class="cls-3" d="M65,29.23a1.73,1.73,0,0,1-.09.56,1,1,0,0,1-1,.71,1.06,1.06,0,0,1-1.16-.86,1.67,1.67,0,0,1,.11-1.12,1,1,0,0,1,.81-.55,1.36,1.36,0,0,1,.45,0,1.05,1.05,0,0,1,.82.87C65,29,65,29.1,65,29.23Zm-1.76,0a1.2,1.2,0,0,0,.08.53.58.58,0,0,0,1.07,0,1.39,1.39,0,0,0,.09-.35,1.47,1.47,0,0,0-.09-.75.53.53,0,0,0-.57-.32.52.52,0,0,0-.5.35A1.32,1.32,0,0,0,63.28,29.23Z"/><path class="cls-3" d="M30.36,24.72a3.36,3.36,0,0,1-1,.12,1.14,1.14,0,0,1-.51-.13.61.61,0,0,1-.31-.36.77.77,0,0,1,.41-1,1.32,1.32,0,0,1,.62-.12h.33a.39.39,0,0,0-.28-.52,1.3,1.3,0,0,0-.65,0l-.18,0a.59.59,0,0,1-.09-.37,1.34,1.34,0,0,1,.43-.1,1.73,1.73,0,0,1,.6,0,.74.74,0,0,1,.67.72v1.67Zm-.47-.32V24a1.36,1.36,0,0,0,0-.4,3.49,3.49,0,0,0-.46,0,.68.68,0,0,0-.27.07c-.16.07-.22.22-.19.45a.33.33,0,0,0,.31.28A1.51,1.51,0,0,0,29.89,24.4Z"/><path class="cls-3" d="M66.42,17.62a2.24,2.24,0,0,0,0-.31.35.35,0,0,0-.32-.24,1.51,1.51,0,0,0-.7.05l-.08,0a.83.83,0,0,1-.1-.38,2,2,0,0,1,1.12-.07.71.71,0,0,1,.58.73c0,.54,0,1.09,0,1.65l-.45.09a2.43,2.43,0,0,1-.85,0A.69.69,0,0,1,65,18.5a.76.76,0,0,1,.45-.79,1.55,1.55,0,0,1,.8-.11Zm0,1.14V18a1.46,1.46,0,0,0-.55,0,.55.55,0,0,0-.25.1.39.39,0,0,0-.13.43.32.32,0,0,0,.27.26A1.84,1.84,0,0,0,66.4,18.76Z"/><path class="cls-3" d="M24.93,17.59a1,1,0,0,0,0-.17.39.39,0,0,0-.36-.36,1.77,1.77,0,0,0-.69.06l-.08,0a.65.65,0,0,1-.09-.39,2.16,2.16,0,0,1,1.07-.07.73.73,0,0,1,.62.73c0,.26,0,.53,0,.8s0,.55,0,.82a.13.13,0,0,1,0,0l-.46.08a2.21,2.21,0,0,1-.85,0,.69.69,0,0,1-.46-.3.78.78,0,0,1,.24-1.07,1.25,1.25,0,0,1,.65-.18Zm0,1.17V18a1.38,1.38,0,0,0-.67,0,.51.51,0,0,0-.16.09.41.41,0,0,0-.1.42.32.32,0,0,0,.25.24A1.56,1.56,0,0,0,24.93,18.76Z"/><path class="cls-3" d="M28.19,28.44a.54.54,0,0,1-.09-.38l.34-.07a2,2,0,0,1,.64,0,.77.77,0,0,1,.71.81c0,.52,0,1,0,1.54a.13.13,0,0,1,0,.06,2.8,2.8,0,0,1-1.35.07.67.67,0,0,1-.52-.55.74.74,0,0,1,.24-.75,1,1,0,0,1,.62-.24c.18,0,.36,0,.53,0a.4.4,0,0,0-.37-.54,1.62,1.62,0,0,0-.62.05Zm1.13,1.64v-.77l-.22,0a1.14,1.14,0,0,0-.48.06.37.37,0,0,0-.24.42.33.33,0,0,0,.3.33l.15,0Z"/><path class="cls-3" d="M74.76,17.91a1.44,1.44,0,0,1-.17.76,1,1,0,0,1-.81.51,1.13,1.13,0,0,1-.68-.11.9.9,0,0,1-.49-.54,1.71,1.71,0,0,1,0-1.18,1.12,1.12,0,0,1,2.16.35A1.48,1.48,0,0,1,74.76,17.91Zm-.5,0a1.12,1.12,0,0,0-.12-.59.53.53,0,0,0-.52-.29.51.51,0,0,0-.51.32,1.47,1.47,0,0,0,0,1.11.52.52,0,0,0,.51.34.53.53,0,0,0,.54-.34A1.25,1.25,0,0,0,74.26,17.92Z"/><path class="cls-3" d="M46.24,24.79V22.37a.72.72,0,0,1,.41,0l.05.34a.76.76,0,0,0,.09-.09.93.93,0,0,1,1.07-.24.65.65,0,0,1,.34.39,1.37,1.37,0,0,1,.08.53c0,.48,0,1,0,1.45,0,0,0,0,0,0a.89.89,0,0,1-.47,0c0-.05,0-.09,0-.13V23.44a2,2,0,0,0,0-.35.38.38,0,0,0-.45-.35.54.54,0,0,0-.48.31,1,1,0,0,0-.12.48v1.25A1,1,0,0,1,46.24,24.79Z"/><path class="cls-3" d="M64.87,22.71a1,1,0,0,1,.12-.14A.94.94,0,0,1,66,22.38a.57.57,0,0,1,.3.31,1.18,1.18,0,0,1,.09.37c0,.57,0,1.14,0,1.73a1.24,1.24,0,0,1-.47,0s0-.07,0-.1V23.38a2.64,2.64,0,0,0,0-.28.41.41,0,0,0-.55-.35.59.59,0,0,0-.45.45,1.14,1.14,0,0,0,0,.37v1.21a1,1,0,0,1-.48,0v-2.4a.57.57,0,0,1,.41,0Z"/><path class="cls-3" d="M77.5,19.14H77V16.71a.58.58,0,0,1,.39,0l.06.33.09-.1a.93.93,0,0,1,1-.23.59.59,0,0,1,.37.41,1.87,1.87,0,0,1,.07.4c0,.52,0,1,0,1.54,0,0,0,.05,0,.08h-.47V19c0-.43,0-.85,0-1.28a1.47,1.47,0,0,0,0-.36.35.35,0,0,0-.36-.27.6.6,0,0,0-.62.47,1.58,1.58,0,0,0,0,.38C77.49,18.32,77.5,18.72,77.5,19.14Z"/><path class="cls-3" d="M30.86,19.14H30.4c0-.05,0-.09,0-.13,0-.42,0-.85,0-1.27a1.37,1.37,0,0,0-.05-.4.33.33,0,0,0-.34-.26.59.59,0,0,0-.62.46,1.08,1.08,0,0,0-.05.36c0,.35,0,.7,0,1.05v.18a1.93,1.93,0,0,1-.48,0V16.72a.55.55,0,0,1,.4,0l.05.32.23-.2a.91.91,0,0,1,.95-.1.53.53,0,0,1,.27.26,1,1,0,0,1,.12.48c0,.53,0,1.07,0,1.61A.35.35,0,0,0,30.86,19.14Z"/><path class="cls-3" d="M45.76,16.69h.4l.05.35.14-.14a.91.91,0,0,1,1-.2.68.68,0,0,1,.42.52,1.75,1.75,0,0,1,0,.32v1.51a.34.34,0,0,1,0,.09H47.3V19c0-.43,0-.86,0-1.29a1.53,1.53,0,0,0,0-.3.38.38,0,0,0-.38-.29.62.62,0,0,0-.63.55,2.11,2.11,0,0,0,0,.25V19a.62.62,0,0,1,0,.13,1.84,1.84,0,0,1-.47,0Z"/><path class="cls-3" d="M69.18,22.36l0,.33a1.86,1.86,0,0,1,.26-.23.92.92,0,0,1,.91-.08.58.58,0,0,1,.32.35,1.3,1.3,0,0,1,.08.34v1.71a1.18,1.18,0,0,1-.46,0c0-.05,0-.09,0-.13V23.56c0-.13,0-.26,0-.38a.44.44,0,0,0-.71-.37.64.64,0,0,0-.31.41,1.73,1.73,0,0,0,0,.32c0,.37,0,.75,0,1.12,0,0,0,.08,0,.12a1.07,1.07,0,0,1-.47,0V22.37A.68.68,0,0,1,69.18,22.36Z"/><path class="cls-3" d="M43.32,28h.48s0,.1,0,.14v1.2a1.34,1.34,0,0,0,0,.35.45.45,0,0,0,.35.37,1.48,1.48,0,0,0,.66,0V28h.46c0,.13,0,1.82,0,2.35a2.49,2.49,0,0,1-.76.14,3,3,0,0,1-.52,0,.83.83,0,0,1-.71-.77,3.71,3.71,0,0,1,0-.47V28Z"/><path class="cls-3" d="M25.17,24.79a1,1,0,0,1-.46,0v-.17c0-.4,0-.8,0-1.21a1.63,1.63,0,0,0,0-.31c0-.26-.21-.41-.55-.33a.59.59,0,0,0-.45.48,1.12,1.12,0,0,0,0,.32v1.23a.93.93,0,0,1-.47,0V22.35h.39l.06.35c.05,0,.07-.07.1-.11a1,1,0,0,1,1.09-.2.77.77,0,0,1,.37.61.76.76,0,0,1,0,.15v1.57A.56.56,0,0,0,25.17,24.79Z"/><path class="cls-3" d="M71.47,30.44l-.22,0-.24,0V28h.39l0,.36A1,1,0,0,1,72,28a1.09,1.09,0,0,1,.62,0,.62.62,0,0,1,.39.47,1.12,1.12,0,0,1,0,.31v1.63a.93.93,0,0,1-.47,0V30.3c0-.44,0-.89,0-1.33a1,1,0,0,0-.06-.34.32.32,0,0,0-.31-.24.6.6,0,0,0-.61.36,1,1,0,0,0-.09.42Z"/><path class="cls-3" d="M68.71,17.1H67.64a.65.65,0,0,1,0-.39h1.82c0,.07,0,.11,0,.16l-.86,1.32-.35.55c.21,0,.4,0,.59,0h.59a1.48,1.48,0,0,1,0,.19c0,.06,0,.12,0,.19H67.5c0-.07,0-.12,0-.17l.6-.94.53-.82A.89.89,0,0,0,68.71,17.1Z"/><path class="cls-3" d="M21.6,30l.54.09a.6.6,0,0,0,.43-.09.3.3,0,0,0,0-.54l-.23-.1a3.69,3.69,0,0,1-.42-.17.56.56,0,0,1-.35-.6A.65.65,0,0,1,22,28a1.52,1.52,0,0,1,.79-.05l.38.09-.1.38a.88.88,0,0,0-.26-.06,3.15,3.15,0,0,0-.44,0,.42.42,0,0,0-.16,0,.23.23,0,0,0-.1.37.56.56,0,0,0,.2.14l.46.16a.63.63,0,0,1,.45.57.69.69,0,0,1-.35.7,1.26,1.26,0,0,1-.78.16,4,4,0,0,1-.5-.09s0,0-.09,0Z"/><path class="cls-3" d="M37,24.72l.12-.37c.15,0,.28.07.42.09a.93.93,0,0,0,.44,0,.36.36,0,0,0,.26-.28.25.25,0,0,0-.14-.3c-.09,0-.19-.08-.28-.12l-.44-.19a.63.63,0,0,1,0-1.09,1.29,1.29,0,0,1,.38-.12,2,2,0,0,1,.89.12l-.1.36-.31-.07a1,1,0,0,0-.49,0c-.11,0-.19.09-.2.2a.24.24,0,0,0,.14.28l.42.17.2.07a.7.7,0,0,1,.14,1.19,1.15,1.15,0,0,1-.52.2A1.91,1.91,0,0,1,37,24.72Z"/><path class="cls-3" d="M21.47,18.73l.43,0a.37.37,0,0,0,.36-.37V16.17h-.58a.89.89,0,0,1,0-.43h1.07s0,.08,0,.11c0,.81,0,1.62,0,2.43a1.27,1.27,0,0,1-.06.39.64.64,0,0,1-.52.49,1.72,1.72,0,0,1-.78,0Z"/><path class="cls-3" d="M71.48,24.72l.1-.37.39.08a1,1,0,0,0,.48,0,.37.37,0,0,0,.25-.22.29.29,0,0,0-.16-.38l-.42-.17-.26-.11a.57.57,0,0,1-.32-.53.62.62,0,0,1,.34-.57.89.89,0,0,1,.35-.11,1.77,1.77,0,0,1,.88.1.62.62,0,0,1-.07.36,5.42,5.42,0,0,0-.54-.08.92.92,0,0,0-.28,0,.21.21,0,0,0-.18.19.24.24,0,0,0,.14.28l.35.14.27.1a.7.7,0,0,1,.13,1.19,1,1,0,0,1-.51.2A1.79,1.79,0,0,1,71.48,24.72Z"/><path class="cls-3" d="M34.3,19.06l.11-.37c.1,0,.2.06.29.07a2.26,2.26,0,0,0,.45,0,.75.75,0,0,0,.25-.09.3.3,0,0,0,0-.51l-.22-.1-.3-.11-.21-.11a.54.54,0,0,1-.31-.53.65.65,0,0,1,.35-.57,1.29,1.29,0,0,1,.72-.11,2,2,0,0,1,.53.12l-.1.36-.38-.08a.86.86,0,0,0-.45,0c-.09,0-.16.08-.17.19a.24.24,0,0,0,.1.26l.2.1.5.19a.58.58,0,0,1,.36.48.73.73,0,0,1-.34.73,1.19,1.19,0,0,1-.66.17,1.77,1.77,0,0,1-.64-.09Z"/><path class="cls-3" d="M56,16.76l-.1.37-.36-.08a.89.89,0,0,0-.46,0,.25.25,0,0,0-.09.44l.25.13.41.14a.63.63,0,0,1,.42.61.69.69,0,0,1-.35.63,1.37,1.37,0,0,1-.38.15,2,2,0,0,1-.93-.07l-.07,0,.11-.38a1.73,1.73,0,0,0,.66.11.55.55,0,0,0,.35-.12.28.28,0,0,0,0-.46.67.67,0,0,0-.18-.11L54.93,18a.53.53,0,0,1-.15-.08.55.55,0,0,1-.34-.6.63.63,0,0,1,.42-.55,1.54,1.54,0,0,1,.85-.05Z"/><path class="cls-3" d="M58.9,22.74H57.8a.56.56,0,0,1,0-.36,14.26,14.26,0,0,1,1.86,0c-.12.23-.28.44-.42.66l-.42.66-.45.68h1.2v.35c-.08,0-1.79,0-1.87,0s0,0-.06-.05Z"/><path class="cls-3" d="M63.33,22.35a1.62,1.62,0,0,1,.49,0l-.94,2.42a1.06,1.06,0,0,1-.47,0l-.94-2.4a.87.87,0,0,1,.54,0l.62,1.89c.08,0,.08-.08.09-.12.19-.57.38-1.15.58-1.72C63.3,22.4,63.31,22.39,63.33,22.35Z"/><path class="cls-3" d="M26.86,24.33l.66-2H28l-.94,2.43a1,1,0,0,1-.48,0l-.94-2.42a1.87,1.87,0,0,1,.53,0Z"/><path class="cls-3" d="M71.21,19.14h-.47l-.94-2.42a1.1,1.1,0,0,1,.54,0l.65,2c.23-.67.43-1.31.66-2a1,1,0,0,1,.51,0Z"/><path class="cls-3" d="M27.1,18.62l.32-.95c.1-.32.21-.63.32-1a.81.81,0,0,1,.51,0l-.95,2.42h-.47l-.94-2.42a1.1,1.1,0,0,1,.54,0l.63,1.91Z"/><path class="cls-3" d="M66.79,30.45h-.46l-1-2.43a2.45,2.45,0,0,1,.54,0l.65,2c.24-.67.44-1.31.66-2a2.78,2.78,0,0,1,.5,0,8.53,8.53,0,0,1-.3.81c-.1.28-.21.54-.32.81S66.9,30.17,66.79,30.45Z"/><path class="cls-3" d="M76,28V30.5a1.43,1.43,0,0,1,0,.29.59.59,0,0,1-.52.52,1.4,1.4,0,0,1-.64,0,.58.58,0,0,1,.07-.35h.35a.27.27,0,0,0,.28-.26s0-.06,0-.1V28.47s0,0,0-.06h-.28a.87.87,0,0,1,0-.39Z"/><path class="cls-3" d="M37.3,17.09c0,.47,0,.93,0,1.38,0,.26.1.32.37.31l.22,0a.68.68,0,0,1,.06.37,1.25,1.25,0,0,1-.79,0,.54.54,0,0,1-.35-.52c0-.27,0-.54,0-.81v-.66c-.12-.07-.26,0-.38-.08a3.72,3.72,0,0,1,.41-.48c.13-.16.28-.31.45-.5v.63h.61a.68.68,0,0,1,0,.4Z"/><path class="cls-3" d="M62.33,30.08l0,.36a1,1,0,0,1-.75-.06.55.55,0,0,1-.26-.5c0-.18,0-.37,0-.55V27a1.29,1.29,0,0,1,.48,0v2.69c0,.3,0,.45.42.41Z"/><path class="cls-3" d="M26.49,27H27v2.71a1.41,1.41,0,0,0,0,.2.22.22,0,0,0,.25.21h.21c.07.1,0,.23.07.32s0,0,0,0a1,1,0,0,1-.67,0,.56.56,0,0,1-.32-.51V27Z"/><path class="cls-3" d="M32.14,24.42a.79.79,0,0,1,0,.13v.24l-.28,0a.6.6,0,0,1-.66-.37,1.18,1.18,0,0,1-.05-.37c0-.8,0-1.6,0-2.41v-.35a1.07,1.07,0,0,1,.47,0s0,.07,0,.09V24a1.77,1.77,0,0,0,0,.23c0,.17.09.24.26.24Z"/><path class="cls-3" d="M74.94,19.93,75,19.6l.33,0a.29.29,0,0,0,.32-.26.45.45,0,0,0,0-.11v-2.1a.2.2,0,0,0,0-.07h-.28a.59.59,0,0,1,0-.37h.77v2.51a1.48,1.48,0,0,1,0,.21.61.61,0,0,1-.54.57A1.12,1.12,0,0,1,74.94,19.93Z"/><path class="cls-3" d="M53.16,17.08h-.29v-.37h.77v2.56a1.15,1.15,0,0,1,0,.19.59.59,0,0,1-.48.53,1.38,1.38,0,0,1-.67,0,.53.53,0,0,1,.05-.35h.35a.29.29,0,0,0,.29-.27V17.17A.31.31,0,0,0,53.16,17.08Z"/><path class="cls-3" d="M49.13,27h.46v.19c0,.83,0,1.67,0,2.5a.93.93,0,0,0,0,.23.2.2,0,0,0,.23.19.48.48,0,0,0,.12,0h.11c0,.06,0,.11,0,.17s0,.11,0,.19a1,1,0,0,1-.74-.06.52.52,0,0,1-.26-.48c0-1,0-1.93,0-2.9A.08.08,0,0,1,49.13,27Z"/><path class="cls-3" d="M39.88,24.8a1.54,1.54,0,0,1-.48,0V21.33a1.29,1.29,0,0,1,.48,0Z"/><path class="cls-3" d="M74.38,24.8a1.54,1.54,0,0,1-.48,0V21.34a.91.91,0,0,1,.48,0Z"/><path class="cls-3" d="M56.8,15.67a1,1,0,0,1,.47,0v3.46H56.8Z"/><path class="cls-3" d="M23.93,27h.44c0,.12,0,3.17,0,3.48h-.45Z"/><path class="cls-3" d="M52.62,30.45h-.46V27h.46Z"/><path class="cls-3" d="M53.3,22.35h.4l0,.35a.78.78,0,0,1,.81-.34.81.81,0,0,1,0,.41l-.29,0a.51.51,0,0,0-.43.35,1.61,1.61,0,0,0-.07.37c0,.36,0,.73,0,1.09v.17a1.07,1.07,0,0,1-.47,0Z"/><path class="cls-3" d="M63.76,19.14h-.47V16.72a.61.61,0,0,1,.4,0l.05.34a.76.76,0,0,1,.81-.34,1,1,0,0,1,0,.42H64.3a.51.51,0,0,0-.46.35,1.36,1.36,0,0,0-.08.39v1.27Z"/><path class="cls-3" d="M74,28.4h-.29a.5.5,0,0,1,0-.38h.76s0,0,0,0v2.38a.76.76,0,0,1-.47,0Z"/><path class="cls-3" d="M50.5,28h.76c0,.14.05,1.65,0,2.41a.79.79,0,0,1-.48,0v-2l-.3,0Z"/><path class="cls-3" d="M40,23.53l.76-1.15a.87.87,0,0,1,.53,0l-.76,1.12.9,1.28a1.58,1.58,0,0,1-.53,0Z"/><path class="cls-3" d="M75.8,22.36,75,23.49l.9,1.29a1.58,1.58,0,0,1-.53,0l-.9-1.27.76-1.16A1.22,1.22,0,0,1,75.8,22.36Z"/><path class="cls-3" d="M52.74,29.19,53.51,28h.54l-.78,1.14.9,1.28a1,1,0,0,1-.53,0Z"/><path class="cls-3" d="M24.51,29.19,25.28,28h.54L25,29.15l.9,1.28a1,1,0,0,1-.54,0Z"/><path class="cls-3" d="M57.39,17.88l.76-1.17a1,1,0,0,1,.53,0l-.76,1.12.9,1.28a1.58,1.58,0,0,1-.53,0Z"/><path class="cls-3" d="M60,19.14h-.48V17.09h-.3V16.7H60Z"/><path class="cls-3" d="M38.72,17.07H38.4v-.36h.76c0,.11,0,2.18,0,2.43h-.45V17.07Z"/><path class="cls-3" d="M42.6,22.36v2.41a.83.83,0,0,1-.47,0V22.74h-.31v-.37Z"/><path class="cls-3" d="M77.09,24.79a1.19,1.19,0,0,1-.46,0V22.74h-.31v-.37h.77Z"/><path class="cls-3" d="M33.34,24.8h-.45V22.74h-.3a.58.58,0,0,1,0-.37h.75C33.35,22.49,33.37,24.41,33.34,24.8Z"/><path class="cls-3" d="M32.31,16.71v2.43h-.47V17.08h-.28a.47.47,0,0,1,0-.37Z"/><path class="cls-3" d="M80,17.07h-.3a.56.56,0,0,1,0-.36h.75v2.43H80Z"/><path class="cls-3" d="M60.87,24.79a1.19,1.19,0,0,1-.46,0V22.74h-.3a.67.67,0,0,1,0-.37h.76C60.88,22.48,60.9,24.5,60.87,24.79Z"/><path class="cls-3" d="M67.88,22.37v2.41a1,1,0,0,1-.46,0V22.74h-.3a.67.67,0,0,1,0-.37Z"/><path class="cls-3" d="M44.89,22.74h-.3a.59.59,0,0,1,0-.37h.75v2.41a.85.85,0,0,1-.45,0Z"/><path class="cls-3" d="M51.66,17.07h-.29a.56.56,0,0,1,0-.36h.76v2.43h-.46Z"/><path class="cls-3" d="M21.48,22.37h.77v2.41a.8.8,0,0,1-.46,0v-2H21.5A1.15,1.15,0,0,1,21.48,22.37Z"/><path class="cls-3" d="M35.5,16.34h-.56l-.51-.61a1,1,0,0,1,.49,0l.3.36c.11-.11.19-.23.3-.35a.85.85,0,0,1,.5,0Z"/><path class="cls-3" d="M59,22h-.55l-.52-.61a1.15,1.15,0,0,1,.45,0s.08.05.11.09l.23.28a3.07,3.07,0,0,0,.24-.29.18.18,0,0,1,.18-.09h.38C59.36,21.61,59.18,21.79,59,22Z"/><path class="cls-3" d="M61.36,18.6l-.3,1.06a1.41,1.41,0,0,1-.46,0c.07-.36.19-.7.27-1.06A1.15,1.15,0,0,1,61.36,18.6Z"/><path class="cls-3" d="M33.29,21.34a2,2,0,0,1,0,.49,1.51,1.51,0,0,1-.52,0,1.66,1.66,0,0,1,0-.5Z"/><path class="cls-3" d="M42.54,21.85H42a1.64,1.64,0,0,1,0-.5,1.88,1.88,0,0,1,.53,0A1.46,1.46,0,0,1,42.54,21.85Z"/><path class="cls-3" d="M67.31,21.35h.51a1.29,1.29,0,0,1,0,.48,1.5,1.5,0,0,1-.52,0A1.68,1.68,0,0,1,67.31,21.35Z"/><path class="cls-3" d="M60.3,21.34h.51a2,2,0,0,1,0,.49,1.53,1.53,0,0,1-.52,0A1.74,1.74,0,0,1,60.3,21.34Z"/><path class="cls-3" d="M76.52,21.34H77a1.05,1.05,0,0,1,0,.5,1.25,1.25,0,0,1-.51,0Z"/><path class="cls-3" d="M45.31,21.35v.48a1.3,1.3,0,0,1-.52,0,1,1,0,0,1,0-.49A1.81,1.81,0,0,1,45.31,21.35Z"/><path class="cls-3" d="M31.73,15.7a1.19,1.19,0,0,1,.53,0,2,2,0,0,1,0,.49h-.51A1.6,1.6,0,0,1,31.73,15.7Z"/><path class="cls-3" d="M39.13,15.7v.48a2.26,2.26,0,0,1-.52,0,1.6,1.6,0,0,1,0-.49A1.19,1.19,0,0,1,39.13,15.7Z"/><path class="cls-3" d="M51.22,27.49a1.14,1.14,0,0,1-.52,0,2,2,0,0,1,0-.49h.49A.9.9,0,0,1,51.22,27.49Z"/><path class="cls-3" d="M80.44,15.7a1.61,1.61,0,0,1,0,.49h-.51a1.34,1.34,0,0,1,0-.49A1.14,1.14,0,0,1,80.44,15.7Z"/><path class="cls-3" d="M53.58,15.71a1.3,1.3,0,0,1,0,.48h-.49a1,1,0,0,1,0-.48A.92.92,0,0,1,53.58,15.71Z"/><path class="cls-3" d="M51.56,16.19v-.48a.92.92,0,0,1,.52,0v.48A2.24,2.24,0,0,1,51.56,16.19Z"/><path class="cls-3" d="M22.21,21.83a1.34,1.34,0,0,1-.53,0v-.49a1.88,1.88,0,0,1,.53,0Z"/><path class="cls-3" d="M59.41,15.71a1,1,0,0,1,.52,0,1,1,0,0,1,0,.49h-.51Z"/><path class="cls-3" d="M75.92,27.48a1.1,1.1,0,0,1-.51,0,.79.79,0,0,1,0-.48,1.34,1.34,0,0,1,.49,0A1.24,1.24,0,0,1,75.92,27.48Z"/><path class="cls-3" d="M75.54,15.71a.92.92,0,0,1,.52,0,1.06,1.06,0,0,1,0,.47,1.4,1.4,0,0,1-.5,0A1.49,1.49,0,0,1,75.54,15.71Z"/><path class="cls-3" d="M74.41,27.49a1,1,0,0,1-.52,0V27a1.51,1.51,0,0,1,.52,0Z"/><path class="cls-2" d="M188.19,11.63a11.64,11.64,0,0,1,2.29-.77,7.67,7.67,0,0,1,1.17-.17,9.81,9.81,0,0,1,2.23.1,8.34,8.34,0,0,1,2.68.91c-.06.68-.13,1.35-.19,2,0,.16,0,.32,0,.47,0,.82,0,1.64-.13,2.45a5.43,5.43,0,0,1-3.61,4.46.69.69,0,0,1-.49,0,5.15,5.15,0,0,1-3.06-2.56,5.58,5.58,0,0,1-.67-2.68c0-.76-.07-1.53-.11-2.29,0-.05-.07-.1-.1-.15Zm5,4.4c-.34-.54-.51-1.1-.86-1.57-.32.53-.49,1.08-.84,1.56l-.58-.75-1.35,1.79a.79.79,0,0,0,1.11.7,1.63,1.63,0,0,1,1.4,0,.65.65,0,0,0,.53,0,1.66,1.66,0,0,1,1.38,0c.66.22,1,0,1.17-.63l-1.36-1.8Zm-.81,4.5a5.41,5.41,0,0,1-1.58-.83,4.51,4.51,0,0,1-1.66-2.83c-.12-.75-.16-1.51-.21-2.27s-.08-1.59-.12-2.39a2.49,2.49,0,0,0-.09-.37h-.11a1.21,1.21,0,0,0-.09.31c0,.33.06.65.08,1s0,.38,0,.57c.06.76.17,1.51.18,2.27a5.12,5.12,0,0,0,.75,2.65,4.65,4.65,0,0,0,2.51,2.06,1,1,0,0,0,.6,0,5.12,5.12,0,0,0,2.64-2.3,6.1,6.1,0,0,0,.63-2.47c.07-.8.08-1.6.12-2.39,0-.33.08-.65.09-1a1,1,0,0,0-.16-.8c0,.5-.11.9-.14,1.3s0,.7,0,1c0,.7-.15,1.4-.18,2.11a4.7,4.7,0,0,1-.47,1.88A4.84,4.84,0,0,1,192.38,20.53Zm1.88-1.63a2.5,2.5,0,0,1-.45-.13,1,1,0,0,0-.94,0,1.19,1.19,0,0,1-1.1,0,.82.82,0,0,0-.79,0c-.15.07-.31.12-.48.18A4.19,4.19,0,0,0,192,20a.83.83,0,0,0,.64,0A4.67,4.67,0,0,0,194.26,18.9ZM190,18.12c0,.23.11.32.26.31a1.77,1.77,0,0,0,.61-.08,1.28,1.28,0,0,1,1.05,0,1.07,1.07,0,0,0,1,0,.87.87,0,0,1,.84,0c.06,0,.12.09.19.09a3.11,3.11,0,0,0,.61,0c.06,0,.11-.12.16-.18-.57.22-1-.26-1.48-.3l-.2.1a1.17,1.17,0,0,1-1.27,0,1.66,1.66,0,0,0-.38-.11C190.9,18,190.5,18.4,190,18.12ZM192.72,13l-.36-.17L192,13l-.08.44.42.19.36-.18Zm1-.92v-.43l-.34-.19-.37.18v.44l.36.18ZM191,11.65l0,.45.35.22.35-.21,0-.45-.36-.12Z"/><path class="cls-4" d="M207.43,19h-.57c0-.69,0-1.38-.07-2.07l-.46,1h-.52l-.46-1-.08,0v2.05h-.56V15.79h.73l.65,1.35.67-1.39.67,0Z"/><path class="cls-4" d="M209.63,24.19h-.84l-.94-2.07h-.08v2.05h-.57V21H208l1,2.14a14.54,14.54,0,0,0,.11-2.11l.57-.06Z"/><path class="cls-4" d="M214.92,21l.57,0v3.17a2.81,2.81,0,0,1-.83,0l-.93-2.08a1.17,1.17,0,0,0-.1.63v1.43h-.56V21l.75-.05c.41.69.64,1.48,1.1,2.16Z"/><path class="cls-4" d="M264.64,19h-.53a18.73,18.73,0,0,1,0-3.12h.8l1,2.19.06,0V15.84h.58v3.1h-.83l-.95-2.08-.08,0Z"/><path class="cls-4" d="M226.07,21.07h.83l.94,2.09h.09V21.07h.57v3.1h-.82l-1-2.23v2.18a.89.89,0,0,1-.6.06Z"/><path class="cls-4" d="M247.3,17.35a.85.85,0,0,1,.38,1,.58.58,0,0,1-.49.49,4.3,4.3,0,0,1-.72.1h-1V15.82c.49,0,1,0,1.45,0a.79.79,0,0,1,.59,1.3C247.45,17.2,247.38,17.26,247.3,17.35Zm-1.21.28v.78h.4c.51,0,.58-.09.53-.63C246.74,17.53,246.41,17.62,246.09,17.63Zm0-.55h.44c.46,0,.53-.12.4-.63a1,1,0,0,0-.84-.05Z"/><path class="cls-4" d="M210,17v1.95l-.53,0a19.22,19.22,0,0,1,0-3.15h.78l1,2.27h.06V15.83h.51v3.1H211L210.07,17Z"/><path class="cls-4" d="M231.15,17.37c0,.19,0,.35,0,.5A1.14,1.14,0,0,1,229.72,19c-.74-.09-1-.27-1.11-1a2.76,2.76,0,0,1,.12-1.63.75.75,0,0,1,.18-.31,1.52,1.52,0,0,1,1.47-.25,1,1,0,0,1,.73.92A4.88,4.88,0,0,1,231.15,17.37Zm-1.73-1a2.46,2.46,0,0,0-.07,1.79c.07.25.33.26.56.26s.44-.09.48-.31a5.21,5.21,0,0,0,.08-1.18c0-.55-.25-.68-.79-.62Z"/><path class="cls-4" d="M245,17.34c0,.24,0,.45-.08.65-.12.71-.39,1-1.08,1a2.79,2.79,0,0,1-.76-.11.83.83,0,0,1-.57-.63,3.2,3.2,0,0,1,0-1.79.92.92,0,0,1,.8-.72,2.24,2.24,0,0,1,.73,0,1,1,0,0,1,.85.79C244.9,16.82,244.93,17.1,245,17.34Zm-1,1.08a1.84,1.84,0,0,0,.06-2l-.1,0-.15,0c-.48,0-.63.07-.71.54a3.4,3.4,0,0,0,0,.78C243.06,18.34,243.21,18.46,244,18.42Z"/><path class="cls-4" d="M237.58,22.76a9.32,9.32,0,0,1-.22.93.77.77,0,0,1-.77.51H236a.92.92,0,0,1-.95-.72,3.27,3.27,0,0,1,0-1.7.9.9,0,0,1,.82-.76,2.51,2.51,0,0,1,.67,0,.93.93,0,0,1,.9.8C237.51,22.09,237.53,22.38,237.58,22.76Zm-1.69-1.15a.38.38,0,0,0-.1.12,2.35,2.35,0,0,0,0,1.67c.07.26.31.28.55.28s.46-.08.51-.35a5.33,5.33,0,0,0,.08-1.13c0-.52-.26-.68-.79-.64Z"/><path class="cls-4" d="M218.62,22.64c-.05.3-.08.61-.16.91a.85.85,0,0,1-.84.65c-.17,0-.34,0-.52,0a.93.93,0,0,1-1-.83,3.93,3.93,0,0,1,0-1.49A1,1,0,0,1,217,21a2.91,2.91,0,0,1,.72,0,.88.88,0,0,1,.78.73C218.55,22,218.57,22.33,218.62,22.64Zm-1.56,1c.6,0,.71,0,.8-.39a2.4,2.4,0,0,0,0-1.43.48.48,0,0,0-.18-.24.62.62,0,0,0-1,.5,8.81,8.81,0,0,0,0,.89A.68.68,0,0,0,217.06,23.67Z"/><path class="cls-4" d="M250,17.66l.64,1.27h-.73l-.58-1.2h-.43v1.21h-.62V15.81h1.25a.81.81,0,0,1,.86.47,1.11,1.11,0,0,1-.17,1.18Zm-.35-.49a.49.49,0,0,0,.11-.64c-.22-.33-.55-.14-.84-.19v.87Z"/><path class="cls-4" d="M238.08,24.17V21.06c.49,0,1,0,1.42,0s.73.3.76.82a.93.93,0,0,1-.46,1l.65,1.29h-.72L239.14,23l-.43,0v1.22Zm.63-1.73h.53c.3,0,.4-.15.39-.43s-.13-.39-.42-.41a4.21,4.21,0,0,0-.5,0Z"/><path class="cls-4" d="M220.85,19h-.7l-.61-1.2-.2,0h-.24v1.22h-.61V15.83c.5,0,1,0,1.49,0a.73.73,0,0,1,.69.73,1.1,1.1,0,0,1-.46,1.09Zm-1-1.78c.19-.32.23-.5.13-.64-.24-.32-.56-.13-.85-.2v.88Z"/><path class="cls-4" d="M263.73,18.94H263l-.18-.62h-1l-.22.63H261a12,12,0,0,1,.43-1.54c.15-.52.31-1,.47-1.57h.88Zm-1.36-2.44h-.08L262,17.76h.76Z"/><path class="cls-4" d="M256.25,18.94V15.83h2v.51h-1.33v.74h1.14v.53h-1.13v.74h1.26c.13.19.06.38.08.59Z"/><path class="cls-4" d="M235.66,18.31l-.22.63h-.65l.93-3.11h.87l.94,3.07a1.23,1.23,0,0,1-.66.05l-.22-.64Zm.11-.56a1.38,1.38,0,0,0,.75,0l-.38-1.35Z"/><path class="cls-4" d="M270.51,15.8v.53h-1.35v.75h1.13l.06.52h-1.18v.73a11.25,11.25,0,0,0,1.32.06l0,.49a6.82,6.82,0,0,1-2,0V15.82l1,0Z"/><path class="cls-4" d="M211.76,21l1,3.14H212l-.21-.63h-1l-.22.63H210l.92-3.1A4.8,4.8,0,0,1,211.76,21Zm-.41.69-.08,0L211,23h.75Z"/><path class="cls-4" d="M252.56,18.32h-1l-.2.62h-.66l.94-3.11h.86l.95,3.11h-.68Zm-.47-1.83H252l-.33,1.26h.76Z"/><path class="cls-4" d="M215.5,15.89l0,.55a2.06,2.06,0,0,0-1.18-.05v.5l.51.2c.7.23.73.27.89,1-.2.79-.42,1-1.22,1a1.89,1.89,0,0,1-.92-.2l.11-.49a3.06,3.06,0,0,0,.4.07,4.73,4.73,0,0,0,.52,0,.38.38,0,0,0,.4-.27.39.39,0,0,0-.28-.45l-.49-.16a1,1,0,0,1-.61-1.21.81.81,0,0,1,.75-.61A2.35,2.35,0,0,1,215.5,15.89Z"/><path class="cls-4" d="M221.83,16.4v.49c.27.1.5.2.75.27a.91.91,0,0,1,.59,1.24.76.76,0,0,1-.52.54,2.07,2.07,0,0,1-1.53-.12,2.08,2.08,0,0,1,0-.23,2,2,0,0,1,.09-.26l.57.11h.41a.33.33,0,0,0,.32-.3.35.35,0,0,0-.22-.37l-.54-.19a.86.86,0,0,1-.65-.79c0-.58.15-1,.86-1a7.47,7.47,0,0,1,1,.07v.59A2.21,2.21,0,0,0,221.83,16.4Z"/><path class="cls-4" d="M227.09,18.3c.27-.91.41-1.74.69-2.55l.61.09-.84,3.1h-1l-.85-3.11.66,0C226.68,16.58,226.8,17.42,227.09,18.3Z"/><path class="cls-4" d="M259.14,15.79l.62,2.42h.07l.62-2.38h.66l-.85,3.1h-.95l-.84-3.06C258.7,15.74,258.92,15.84,259.14,15.79Z"/><path class="cls-4" d="M219,24.13c0-.14,0-.23,0-.31s0-.13.05-.22c.42,0,.85.26,1.26,0,.08-.43.05-.49-.31-.63l-.44-.15a.94.94,0,0,1-.52-1.32.66.66,0,0,1,.5-.41,1.92,1.92,0,0,1,1.35.1l0,.48-1-.08c-.24.43-.22.52.13.68a4.93,4.93,0,0,0,.54.19,1,1,0,0,1,.38,1.51.68.68,0,0,1-.39.24A4.48,4.48,0,0,1,219,24.13Z"/><path class="cls-4" d="M231,21l.89.14c0,.11,0,.19,0,.27a1.68,1.68,0,0,1,0,.29c-.2,0-.38-.08-.56-.09a3.84,3.84,0,0,0-.58,0v.54l.67.26a.88.88,0,0,1,.67,1.16.74.74,0,0,1-.76.65,5.38,5.38,0,0,1-1.32-.06l.09-.55c.42,0,.8.23,1.26,0l.09-.49-.75-.28a.86.86,0,0,1-.67-1,.73.73,0,0,1,.7-.76L231,21Z"/><path class="cls-4" d="M233.14,23v1.15h-.61V21.05a10.57,10.57,0,0,1,1.49,0,.77.77,0,0,1,.69.84c0,.78-.27,1.09-1,1.12Zm0-.56c.85.06,1,0,.88-.73-.25-.23-.56-.14-.88-.16Z"/><path class="cls-4" d="M233.84,16.35h-1.28v-.52h2v.53l-1.39,2.05c.51,0,1,0,1.41,0v.5h-2.12v-.54Z"/><path class="cls-4" d="M254.8,15.72l.89.13a.82.82,0,0,1-.16.8c-.35.49-.69,1-1,1.5,0,.07-.07.15-.13.26h1.36v.53h-2.1l0-.51,1.4-2.08h-1.28v-.5l1.1-.12Z"/><path class="cls-4" d="M205.94,21.59h-1.27v-.52h2a.85.85,0,0,1-.14.78c-.4.56-.79,1.14-1.23,1.8h1.41v.53h-2.1v-.57Z"/><path class="cls-4" d="M240,16.36l0-.53h2a.89.89,0,0,1-.15.83c-.31.42-.6.86-.89,1.29l-.3.48H242v.5H240a.85.85,0,0,1,.14-.79c.4-.57.77-1.15,1.19-1.78Z"/><path class="cls-4" d="M215.55,14.21a13.31,13.31,0,0,1,0-3.17h1c.85,0,1.2.63.79,1.39l-.06.09a3.23,3.23,0,0,1,.28.69c.06.51-.13.94-.86,1C216.34,14.23,216,14.21,215.55,14.21Zm.33-.34a1.71,1.71,0,0,0,1,0,.51.51,0,0,0,.37-.64.46.46,0,0,0-.48-.45c-.27,0-.54,0-.84,0Zm0-1.42c.27,0,.51,0,.75,0a.53.53,0,0,0,.55-.51.55.55,0,0,0-.53-.59,6.57,6.57,0,0,0-.77,0Z"/><path class="cls-4" d="M233.64,14.25c-.73,0-1.06-.24-1.18-.92a3.25,3.25,0,0,1,0-1.55,1,1,0,0,1,1.07-.79c.66,0,1,.19,1.16.75a2.79,2.79,0,0,1,0,1.93A.92.92,0,0,1,233.64,14.25Zm.85-1.63c0-.24-.05-.49-.1-.72a.65.65,0,0,0-.69-.58c-.43,0-.71.12-.81.49a3,3,0,0,0,0,1.64c.11.38.37.51.81.48a.64.64,0,0,0,.67-.54C234.44,13.14,234.45,12.88,234.49,12.62Z"/><path class="cls-4" d="M240.94,11l1.34,2.58h.07V11.06h.31v3.12l-.46,0-1.34-2.59-.07,0v2.53h-.31V11.07Z"/><path class="cls-4" d="M217.29,18.94h-.68V16.36l-.79,0v-.51H218v.5l-.74,0Z"/><path class="cls-4" d="M224.81,16.36v2.57h-.66V16.36h-.8l0-.45a6.6,6.6,0,0,1,2.26-.07v.48Z"/><path class="cls-4" d="M222.12,14.19h-.36V11.07l.35,0v1.3c.17.1.26.08.35,0,.24-.34.49-.68.74-1s.3-.35.58-.19l-1.08,1.49,1.09,1.54c-.36.11-.37.12-.56-.13s-.46-.65-.7-1c-.1-.15-.1-.15-.41-.25Z"/><path class="cls-4" d="M266.87,19.87l-.17-.5.48-.31V15.89a.67.67,0,0,1,.66-.09,1.54,1.54,0,0,1,0,.3v2.45a2.16,2.16,0,0,1-.06.51A1,1,0,0,1,266.87,19.87Z"/><path class="cls-4" d="M206.26,12.83l.68,1.35-.39,0-.7-1.33h-.67v1.28l-.26,0a16.74,16.74,0,0,1,0-3.15,5.89,5.89,0,0,1,1.39,0c.45.07.6.33.64.75A.87.87,0,0,1,206.26,12.83Zm-1.08-.28c.29,0,.54,0,.78,0s.54-.19.56-.54-.13-.62-.51-.66a7.66,7.66,0,0,0-.83,0Z"/><path class="cls-4" d="M247.08,11.05l1,3.14h-.38l-.27-.71h-1.28l-.24.73-.38,0,1-3.14Zm.32,2.1-.53-1.62h-.08l-.5,1.62Z"/><path class="cls-4" d="M212.54,11.11l.3-.08a.48.48,0,0,1,.07.15c0,.68,0,1.36,0,2a.62.62,0,0,0,.7.71c.51,0,.74-.22.76-.77s0-1.12,0-1.68v-.41l.19,0a.79.79,0,0,1,.2.07,20.92,20.92,0,0,1-.07,2.37.87.87,0,0,1-.81.76,2.26,2.26,0,0,1-.52,0,.84.84,0,0,1-.78-.72,2.21,2.21,0,0,1-.05-.25,2.25,2.25,0,0,1,0-.26Z"/><path class="cls-4" d="M225.91,13.47h-1.26l-.25.72H224l1-3.14.48,0,1,3.14-.38,0Zm-1.19-.28a10.2,10.2,0,0,0,1.12-.07l-.51-1.59h-.09Z"/><path class="cls-4" d="M238.3,11.38v1.07h1.27l.05.32h-1.33v1.16h1.51c0,.22-.07.27-.2.28H238a13.65,13.65,0,0,1-.07-3.08,6.81,6.81,0,0,1,1.69-.09.68.68,0,0,1,.21.1c0,.24-.15.24-.3.24Z"/><path class="cls-4" d="M223.43,21.07v.51h-.78v2.59H222V21.6l-.82,0v-.5Z"/><path class="cls-4" d="M236.35,13.61l.57-1.94a4.58,4.58,0,0,1,.15-.49c.06-.17.19-.16.4-.1l-.93,3.11H236l-.92-3.11.36-.05.79,2.58Z"/><path class="cls-4" d="M229.38,13.76V13l-.85-.34a.77.77,0,0,1-.62-.84.77.77,0,0,1,.7-.83,1.72,1.72,0,0,1,1.07.15v.24a1.48,1.48,0,0,1-.2,0,1.23,1.23,0,0,0-1.06.06c-.21.54-.12.74.38.91a5.77,5.77,0,0,1,.58.22.81.81,0,0,1,.42,1,.69.69,0,0,1-.75.64,1.91,1.91,0,0,1-1.14-.15l0-.25C228.42,13.84,228.89,14.09,229.38,13.76Z"/><path class="cls-4" d="M241.38,21.58h-.79v-.51h2.2l0,.49H242v2.61h-.6C241.37,23.34,241.39,22.49,241.38,21.58Z"/><path class="cls-4" d="M210.47,12.9v1.23l-.36.09V11.07a4.38,4.38,0,0,1,1.53.06.61.61,0,0,1,.43.42c.18.63,0,1.4-.91,1.35Zm0-1.53a4.66,4.66,0,0,0,0,1.29c.29,0,.57,0,.83-.08s.43-.19.45-.52-.08-.58-.41-.67A2,2,0,0,0,210.46,11.37Z"/><path class="cls-4" d="M239.48,19h-.64V15.81l.61-.08c.06.58,0,1.09,0,1.61Z"/><path class="cls-4" d="M207.58,11.09h1.84l0,.25h-1.54v1.12h1.31v.31H208a6.13,6.13,0,0,0-.06,1.14h1.63c-.11.14-.16.25-.2.25h-1.74Z"/><path class="cls-4" d="M208.72,18.94h-.62V15.83l.54,0s.08.06.08.09Z"/><path class="cls-4" d="M244.81,11.1l.3-.07c0,.05.06.08.06.11,0,1,0,1.91,0,2.87a.9.9,0,0,1-.76,1l-.14-.2s0-.08.05-.09a.74.74,0,0,0,.48-.83c0-.8,0-1.6,0-2.4Z"/><path class="cls-4" d="M212.49,15.83H213v3.11h-.54Z"/><path class="cls-4" d="M224.86,21.07h.53v3.1h-.53Z"/><path class="cls-4" d="M243.55,11.05h.33v3.13l-.33,0Z"/><path class="cls-4" d="M230.45,11.07l.27,0v2.77c.5.16,1,0,1.5.13-.21.22-.21.22-1.74.17A18.22,18.22,0,0,1,230.45,11.07Z"/><path class="cls-4" d="M218.26,14.17V11.1h.29v2.81H220c.07.23,0,.26-.17.26Z"/><path class="cls-4" d="M220.85,14.16h-.26V11.09h.22A16,16,0,0,1,220.85,14.16Z"/><path class="cls-4" d="M254.8,15.72h0l-.93-.52.23-.44.6.32.56-.31.26.31Z"/><path class="cls-4" d="M231,21h0l-.8-.56.27-.39.56.33.6-.33.21.38Z"/><path class="cls-4" d="M271,18.31l.52,0a1.79,1.79,0,0,1-.16,1.32l-.43-.07C271.22,19.12,270.87,18.74,271,18.31Z"/><path class="cls-2" d="M97.39,11.9h24.88V28.45H97.39Zm7.47,8.93,0,0,0,0v-.49l.39-.44-.57-.05-.27-.54-.23.52-.59.11.43.4-.13.59.49-.28Zm5.45-5.45,0,0,0,0V14.9l.39-.43-.58-.05-.27-.54-.24.51-.6.12.45.41-.09.44C109.72,15.06,110,15.37,110.31,15.38Zm4.11,4.56.44.39-.08.6.47-.28.56.29-.14-.58.37-.42-.52-.09-.26-.52-.25.52Zm-7.82,5.72.56-.31.53.35-.17-.58.38-.47-.5-.07-.27-.52-.25.53-.61.06.45.41Zm5.44-.05c.34-.37.67-.2,1,0L113,25.1l.39-.45-.58-.09-.19-.52-.28.55-.58.05.43.47Zm-2.65.49.8.13.4-.88-.49-.05-.27-.54-.24.52-.55.14.41.37Zm6-8.87-.6-.06-.26-.54-.28.55-.55.06.41.37-.1.59.52-.28.52.3-.12-.61Zm-10.28,6.13.54.3-.13-.59.41-.38-.56-.09-.27-.54-.24.55-.58.09.43.36-.11.6Zm.53-5.12-.11-.63.44-.36-.61-.1-.24-.57-.25.58-.6.08.44.39-.11.59.52-.31ZM115,23.07l.44-.39-.58-.07-.27-.54-.26.55-.57.06.39.34v.58l.45-.23.52.27Zm-2.89-6.83.49-.3.56.29-.14-.59.41-.36-.54-.1-.29-.54-.24.53-.5.11.35.29Zm-4.1-1-.57-.09-.25-.56-.29.56-.52.09.36.35-.06.62.47-.31.56.29-.13-.6Z"/><path class="cls-2" d="M116.81,11a5,5,0,0,0,1.34-3.18A10.55,10.55,0,0,0,115.94,1l-.41-.57a.42.42,0,0,1,0-.12,19.1,19.1,0,0,1,4.1-.08c1.9,3.46,2.76,7.06,1.26,11H107l1.23-1.25c.38-.4.78-.79,1.12-1.13L107.1,6.52l-4.65,4.66H97.37V1.47A5,5,0,0,1,99,.26a1.12,1.12,0,0,1,.54-.11h8.94a1.92,1.92,0,0,1,.3,0,3.59,3.59,0,0,0,0,2.44,3.27,3.27,0,0,0,.61,1q3.56,3.6,7.15,7.17A2.36,2.36,0,0,0,116.81,11Zm-12.3-7.2a3.36,3.36,0,0,0-4.7.11,3.23,3.23,0,0,0,0,4.59Z"/><path class="cls-2" d="M115.39,34.76,110.62,30l-1.23,1.2-1.2,1.18,2.37,2.4H101a51.82,51.82,0,0,1,5.45-5.62h8.08l3.15,3.2a3.38,3.38,0,0,0,1-3.18h3.45a6.52,6.52,0,0,1-1.85,5.62Z"/><path class="cls-4" d="M167.55,15.16l1.27,2.41V15.1h.7v3.58c-.67.28-.89.22-1.21-.36-.18-.32-.33-.66-.51-1a4,4,0,0,0-.64-.93v2.41l-.57,0c-.05-.07-.1-.1-.1-.14,0-1.16,0-2.32,0-3.49C166.82,14.91,167.17,15.08,167.55,15.16Z"/><path class="cls-4" d="M140.15,18.88a1.55,1.55,0,0,1-1.75-1.69,2,2,0,0,1,0-.35,1.84,1.84,0,0,1,2.82-1.61.88.88,0,0,1,.29.2,2.39,2.39,0,0,1,.29,2.44A1.5,1.5,0,0,1,140.15,18.88Zm.39-.71a1.7,1.7,0,0,0,.42-2.08.89.89,0,0,0-1.32-.23,1.79,1.79,0,0,0-.29,1.82C139.53,18.14,139.7,18.21,140.54,18.17Z"/><path class="cls-4" d="M135.3,17.26v1.51l-.78.1v-3.7a2.87,2.87,0,0,1,2,0,1,1,0,0,1,.5,1.39c-.1.18-.24.34-.37.53a10.57,10.57,0,0,1,.68,1.7l-.71.05C136.05,18.43,136.24,17.49,135.3,17.26Zm0-.53c.77-.07.77-.07.94-.63-.36-.47-.36-.47-.94-.31Z"/><path class="cls-4" d="M161.73,15.1h.83c0,.73,0,1.4,0,2.08a1.72,1.72,0,0,0,.1.6.65.65,0,0,0,.79.41.58.58,0,0,0,.52-.63c0-.63,0-1.26,0-1.89v-.55l.71-.06c.07.1.12.14.12.17,0,.86,0,1.71,0,2.57a1,1,0,0,1-.85,1,3.12,3.12,0,0,1-1.29,0,1.15,1.15,0,0,1-.9-1.18C161.72,16.81,161.73,16,161.73,15.1Z"/><path class="cls-4" d="M153.81,15.21l-1.13,1.56c.28.73.92,1.24,1.13,2.05l-.76.05-1-1.53-.13,0v1.45h-.73a14.4,14.4,0,0,1,0-3.72h.69l.1,1.44.8-1.11C153.05,15,153.12,15,153.81,15.21Z"/><path class="cls-4" d="M158.31,18.84h-.83l-.34-.78h-1.3l-.34.77h-.77c.44-1.28.85-2.49,1.29-3.75l1-.06C157.46,16.26,157.89,17.5,158.31,18.84ZM156,17.31H157l-.5-1.41Z"/><path class="cls-4" d="M178.65,18.85l-.34-.81H177l-.29.77h-.81l1.28-3.72,1-.06,1.27,3.65C179.23,19,179,18.83,178.65,18.85Zm-.93-2.75h-.15l-.35,1.21h.9Z"/><path class="cls-4" d="M126.41,15.14a6.81,6.81,0,0,1,2.16-.07v.65h-1.32v.79l1.14,0v.64h-1.15v1h1.37v.67c-.76,0-1.47,0-2.2-.05Z"/><path class="cls-4" d="M131.58,17.74l.84-2.64h.81L132,18.83l-1,0-1.28-3.75.87-.06.86,2.68Z"/><path class="cls-4" d="M143.41,15.17a3,3,0,0,1,1.87,0,1,1,0,0,1,.75,1.11,1.28,1.28,0,0,1-.91,1.18,6.76,6.76,0,0,1-.85.16l-.07,1.17-.79.05V15.17Zm.85,1.73c.67,0,1-.22.93-.64s-.31-.59-.93-.49Z"/><path class="cls-4" d="M147.22,18.55V18a7.11,7.11,0,0,0,1,.24c.41,0,.48-.09.48-.66l-.77-.39a1.12,1.12,0,0,1-.71-1.22,1.14,1.14,0,0,1,1.22-.92,6.07,6.07,0,0,1,.93.17v.71c-.46,0-.93-.58-1.34.18.19.15.37.31.56.44s.34.15.5.24a1.08,1.08,0,0,1,.53,1.19,1.23,1.23,0,0,1-1,.93A1.81,1.81,0,0,1,147.22,18.55Z"/><path class="cls-4" d="M144.12,25.88l.52-.05v2.65l-.64,0-1-1.76v1.69l-.52.08V25.89l.71-.06.82,1.43.1,0Z"/><path class="cls-4" d="M134,21.8l-.36.65.46,1.14c-.44.22-.63,0-.77-.27s-.1-.61-.58-.69l-.09,1.05-.56,0V21.07C133.42,20.83,133.73,20.94,134,21.8Z"/><path class="cls-4" d="M136.21,21c1-.07,1.26.6,1.27,1.36a1.28,1.28,0,0,1-1.36,1.41c-.82,0-1.21-.46-1.22-1.36S135.33,21,136.21,21Zm0,.43c-.66.24-.83.58-.69,1.29a.57.57,0,0,0,.55.52.61.61,0,0,0,.65-.4A1.07,1.07,0,0,0,136.26,21.4Z"/><path class="cls-4" d="M160.07,28.5V25.94a1.83,1.83,0,0,1,2,.29,1.6,1.6,0,0,1,.15,1.63C161.71,28.76,160.88,28.46,160.07,28.5Zm.67-2.2V28l.65,0C162,27,161.74,26.44,160.74,26.3Z"/><path class="cls-4" d="M131.4,27.1a1.29,1.29,0,0,1-1.77,1.4.89.89,0,0,1-.31-.15,1.71,1.71,0,0,1-.21-2.09A1.38,1.38,0,0,1,131,26,1.24,1.24,0,0,1,131.4,27.1Zm-2,.06c0,.14,0,.23.05.32.1.39.34.62.66.6a.58.58,0,0,0,.58-.57,2.73,2.73,0,0,0,0-.86.48.48,0,0,0-.53-.36.54.54,0,0,0-.58.38C129.52,26.85,129.48,27,129.44,27.16Z"/><path class="cls-4" d="M139.24,28.47l-.6.05-.3-.57h-.83l-.28.54h-.56l.92-2.66h.71Z"/><path class="cls-4" d="M157.21,28.53l-.55-.07.92-2.62h.71l.94,2.61-.61.08-.25-.57h-.9Z"/><path class="cls-4" d="M143.87,23.64V21l.6,0,.07.92.67-.89h.68l-.84,1.21.85,1.37-.61.13-.75-1.13-.07,1Z"/><path class="cls-4" d="M152.26,28.49l-.59,0V25.89l.57-.11.1,1,.52-.73c.2-.31.44-.39.78-.1l-.78,1.08.85,1.43-.65,0-.72-1.11Z"/><path class="cls-4" d="M139.07,22.82v.8l-.51.09a7.82,7.82,0,0,1,0-2.73c.28,0,.57,0,.87,0a.83.83,0,0,1,.9.78.92.92,0,0,1-.78,1C139.42,22.79,139.28,22.79,139.07,22.82Z"/><path class="cls-4" d="M173.24,18.72v-.65l.6.11a1.48,1.48,0,0,0,.16-.38c0-.63,0-1.25,0-1.88v-.83h.81c0,1,.05,2,0,3C174.74,18.83,174.18,19,173.24,18.72Z"/><path class="cls-4" d="M171.18,18.88V15.1L172,15V18.8Z"/><path class="cls-4" d="M130.39,23.66h-.74l-.88-2.61.6-.09.68,1.94.63-1.87h.6Z"/><path class="cls-4" d="M128,21l0,.44-.9.05,0,.36c.24.26.87-.12.8.58l-.78.09v.62l.92.05v.35a2.35,2.35,0,0,1-1.59,0V21Z"/><path class="cls-4" d="M126.17,27.9l1.31.12c-.16-.27-.2-.42-.3-.5a2.82,2.82,0,0,0-.42-.23.79.79,0,0,1-.47-.9.9.9,0,0,1,1-.63,4.21,4.21,0,0,1,.57.16l0,.43c-.33.15-.72-.36-1,.24a3,3,0,0,0,.55.32.86.86,0,0,1,.5,1.18,1.15,1.15,0,0,1-1.53.33C126.3,28.33,126.27,28.12,126.17,27.9Z"/><path class="cls-4" d="M142.34,22.81l-.68-.34a.82.82,0,0,1-.46-1c.1-.33.35-.5.81-.51.21,0,.41,0,.66.05l0,.49h-.93a1.69,1.69,0,0,0,.24.41,2.55,2.55,0,0,0,.37.19c.42.24.59.53.52.89a.91.91,0,0,1-.84.72,1.76,1.76,0,0,1-.74-.13.3.3,0,0,1-.14-.51C141.54,23,142,23.55,142.34,22.81Z"/><path class="cls-4" d="M150.51,25.9v.46c-.29.12-.58-.29-.85.06,0,.3.2.35.39.47a1.8,1.8,0,0,1,.57.48.77.77,0,0,1-.34,1.06,1,1,0,0,1-1.31-.2.67.67,0,0,1,0-.25c.37-.14.81.29,1.14-.26a4.4,4.4,0,0,1-.55-.37c-.19-.17-.45-.36-.52-.59a.78.78,0,0,1,.83-1A3.06,3.06,0,0,1,150.51,25.9Z"/><path class="cls-4" d="M134.33,26.55l-.79-.28c-.72.45-.8.88-.28,1.73l1-.1a.34.34,0,0,1-.18.52,1.2,1.2,0,0,1-1.73-.68c-.24-1,.18-1.88,1.07-2a1.55,1.55,0,0,1,.77.22C134.27,26.06,134.27,26.3,134.33,26.55Z"/><path class="cls-4" d="M140.07,25.84l.63,0V28l.85.07,0,.45H140.1l0-1.27Z"/><path class="cls-4" d="M156.06,28.48h-1.47c0-.84,0-1.69,0-2.6l.57-.07v2.12C156,28,156,28,156.06,28.48Z"/><path class="cls-4" d="M135.23,25.85h.58v2.63h-.58Z"/><path class="cls-4" d="M146.38,28.52l-.54,0V25.86l.54-.07Z"/><path class="cls-4" d="M146.8,21h.49V23.6h-.49Z"/><path class="cls-2" d="M114.42,19.94l.59-.09.25-.52.26.52.52.09-.37.42.14.58-.56-.29-.47.28.08-.6Z"/><path class="cls-2" d="M106.6,25.66l.12-.6-.45-.41.61-.06.25-.53.27.52.5.07-.38.47.17.58-.53-.35Z"/><path class="cls-2" d="M110.31,15.38c-.3,0-.59-.32-1,0l.09-.44-.45-.41.6-.12.24-.51.27.54.58.05-.39.43v.49Z"/><path class="cls-2" d="M104.86,20.83l-.49-.17-.49.28.13-.59-.43-.4.59-.11.23-.52.27.54.57.05-.39.44v.49Z"/><path class="cls-2" d="M112,25.61l.11-.5-.43-.47.58-.05.28-.55.19.52.58.09-.39.45.11.52C112.71,25.41,112.38,25.24,112,25.61Z"/><path class="cls-2" d="M109.39,26.1l.06-.31-.41-.37.55-.14.24-.52.27.54.49.05-.4.88Z"/><path class="cls-2" d="M115.41,17.23l-.46.38.12.61-.52-.3-.52.28.1-.59-.41-.37.55-.06.28-.55.26.54Z"/><path class="cls-2" d="M105.13,23.36l-.51.3.11-.6-.43-.36.58-.09.24-.55.27.54.56.09-.41.38.13.59Z"/><path class="cls-2" d="M105.66,18.24l-.52-.33-.52.31.11-.59-.44-.39.6-.08.25-.58.24.57.61.1-.44.36Z"/><path class="cls-2" d="M115,23.07l.12.57-.52-.27-.45.23V23l-.39-.34.57-.06.26-.55.27.54.58.07Z"/><path class="cls-2" d="M112.06,16.24l.1-.67-.35-.29.5-.11.24-.53.29.54.54.1-.41.36.14.59-.56-.29Z"/><path class="cls-2" d="M108,15.27l-.43.35.13.6-.56-.29-.47.31.06-.62-.36-.35.52-.09.29-.56.25.56Z"/><path class="cls-2" d="M110.3,15.39l0,0,0,0Z"/><path class="cls-2" d="M104.85,20.84l0,0,0,0Z"/></g></g></g></svg>