<svg xmlns="http://www.w3.org/2000/svg" viewBox="0 0 370.91 607.04"><defs><style>.cls-1,.cls-2{fill-rule:evenodd;}.cls-2{fill:none;stroke:#000;stroke-miterlimit:10;}</style></defs><title>Logo-black</title><g id="Layer_2" data-name="Layer 2"><g id="Artboard_1" data-name="Artboard 1"><polygon class="cls-1" points="186.65 1.66 186.65 95.13 105.17 44.71 186.65 1.66"/><polygon class="cls-2" points="192.75 204.61 192.44 107.38 275.77 160.19 192.75 204.61"/><polygon class="cls-2" points="100.71 154.65 184.53 106.31 184.7 202.69 100.71 154.65"/><polygon class="cls-2" points="97.26 159.61 184.22 209.41 96.21 259.15 97.26 159.61"/><polygon class="cls-1" points="370.91 107.57 285.02 155.19 285.93 55.34 370.91 107.57"/><polygon class="cls-1" points="370.62 113.71 370.56 211.26 289.21 160.23 370.62 113.71"/><polygon class="cls-1" points="370.62 223.94 370.88 322.61 292.28 268.41 370.62 223.94"/><polygon class="cls-1" points="95.21 271.16 183.03 324.43 95.67 375.87 95.21 271.16"/><polygon class="cls-2" points="98.04 265.23 184.21 215.35 184.54 317.61 98.04 265.23"/><polygon class="cls-2" points="192.64 318.62 193.24 214.33 280.22 266.11 192.64 318.62"/><polygon class="cls-1" points="288.25 261.62 286.21 165.23 369.43 217.8 288.25 261.62"/><polygon class="cls-1" points="194 93.77 194 0 273.58 48.5 194 93.77"/><polygon class="cls-1" points="98.81 48.54 98.03 148.19 182.05 99.74 98.81 48.54"/><polygon class="cls-1" points="278.65 154.66 278.89 51.8 194.44 99.54 278.65 154.66"/><polygon class="cls-2" points="281.14 163.66 198.13 208.56 281.23 257.51 281.14 163.66"/><polygon class="cls-1" points="192.49 431.88 192.39 326.59 280.78 379.02 192.49 431.88"/><polygon class="cls-1" points="0 548.15 0 445.24 88.39 494.67 0 548.15"/><polygon class="cls-1" points="287.75 374.58 290.13 274.4 367.03 326.89 287.75 374.58"/><polygon class="cls-1" points="282.71 274.21 199.35 322.86 279.38 369.77 282.71 274.21"/><polygon class="cls-1" points="0.36 204.61 0.05 102.38 88.13 156.44 0.36 204.61"/><polygon class="cls-1" points="0.25 318.62 0.05 213.15 89.24 265.77 0.25 318.62"/><polygon class="cls-1" points="91.69 151.25 92.23 51.8 2.78 98.54 91.69 151.25"/><polygon class="cls-1" points="90.1 164.34 5.74 209.56 89.84 258.51 90.1 164.34"/><polygon class="cls-1" points="0.4 430.88 0 326.59 88.39 378.02 0.4 430.88"/><polygon class="cls-1" points="88.25 275.23 4.89 322.52 87.99 369.77 88.25 275.23"/><polygon class="cls-1" points="99.05 379.54 186.65 431.28 186.65 329.61 99.05 379.54"/><polygon class="cls-1" points="0.63 436.84 88.22 488.57 88.22 386.9 0.63 436.84"/><polygon class="cls-1" points="96.22 607.04 95.82 502.75 185.22 554.18 96.22 607.04"/><polygon class="cls-1" points="95.22 491.39 95.82 384.1 184.22 436.54 95.22 491.39"/><polygon class="cls-1" points="98.45 497.35 186.04 546.09 186.04 444.42 98.45 497.35"/><polygon class="cls-1" points="2.8 554.33 90.39 606.07 90.39 504.39 2.8 554.33"/></g></g></svg>